<?xml version="1.0" encoding="utf-8"?>
<svg version="1.1" id="Layer_2" xmlns="http://www.w3.org/2000/svg" xmlns:xlink="http://www.w3.org/1999/xlink" x="0px" y="0px"
	 viewBox="0 0 100 100" style="enable-background:new 0 0 100 100;" xml:space="preserve">
<style type="text/css">
	.st0{fill:#16140D;}
	.st1{fill:#070603;}
	.st2{fill:#E7BC23;}
	.st3{fill:#B08B09;}
	.st4{fill:#010101;}
	.st5{fill:#C02828;}
	.st6{fill:#F2F2F2;}
	.st7{fill:#E6E6E6;}
	.st8{fill:#F9EDED;}
	.st9{fill:none;stroke:#000000;}
	.st10{opacity:0.96;}
</style>
<path class="st0" d="M83.4,67c-0.9,7.9-4.9,14.2-10.7,19.5c-5.2,4.7-10.3,4.2-14.3-1.4c0.6-0.5,1.2-1,1.8-1.5c4.6,4.2,8,4,12.2-0.7
	c3.8-4.2,7-8.8,7.8-14.6c0.3-0.7,0.5-1.4,1.5-1.4"/>
<path class="st1" d="M58.4,85.1c-1-1.4-2.4-2-4.2-2c-5.8,0-11.4-0.7-16.1,4.4c-3.6,3.9-7.7,2.6-9.7-2.2c-0.6-1.4-1.5-2-2.9-2.4
	c-6.8-2.2-10.9-6.8-11.8-14c-0.7-5.8-1.3-11.7,1-17.4c0.7-1.7-0.3-2.2-1.2-3c-6.2-5-6-16.6,0.3-21.3c2-1.5,4.8-2.2,6.7-0.8
	c2.3,1.7,2.6,0.1,3.4-1.1c5.9-8.5,14.3-13,24.2-15C58.6,8,66,12.7,71.9,21c0.4,0.5,0.7,1.1,1,1.6c2.4,3.6,3,9.3,10.2,5.2
	c4-2.3,7.2,0.9,7.7,5.8c0.6,5.5-0.9,10.4-4.4,14.7c-1.4,1.8-1.9,3.5-2,5.7c-0.2,4.3-0.1,9.3-1.2,13.5c0.1-0.7,0.3,0.3-1.2,0.2
	c-1-0.1-1.1,0.2-1.3-0.6c-0.4-5.4,1.1-10.7,0.8-16c-0.1-2,1.2-3.5,2.4-4.9c2.8-3.4,3.8-7.2,3.4-11.5c-0.3-3.9-2.7-5.2-6.2-3.3
	c-5.6,3-5.6,3-8.5-2.7c-1.1-2.1-2.2-4.2-3.6-6.1c-6.9-9.5-12.3-10.9-24.1-8.3c-7.6,1.6-13.2,6.2-18,12c-1.5,1.8-2.3,3.8-2.8,6
	c-0.3,1.1-0.6,2.3-1.9,2.5c-1.4,0.1-1.8-1.1-2.1-2.2c-0.5-1.4-0.8-3.1-2.7-3.1c-1.9-0.1-2.8,1.4-3.7,2.8c-3.1,5-1.8,11.4,2.9,14.7
	c1.5,1,3.1,2,1.8,4.2c-3.9,7.7-3,15.5,0.3,23.1c1.3,3.2,4.4,4.7,7.5,5.8c2.1,0.7,3.7,1.8,4.9,3.8c1.7,2.9,3.8,3.5,5.9,0.9
	c3.7-4.6,8.5-4.6,13.5-4.4c3.4,0.1,6.7,0,10.1,0c1.1,0,2.3,0,3.3,0.4c1,0.4,1.8,1,1.7,2.2c-0.1,1.1-1,1.3-1.9,1.5
	c-0.9,0.2-1.7,0.2-2.6,0.3C60.1,84.6,59.4,85.6,58.4,85.1z"/>
<path class="st2" d="M81.7,66.9c-0.2,0.5-0.5,1.1-0.7,1.6c-1.2,2.8-3.9,3.8-6.4,4.8c-9,3.5-18.4,4.5-27.9,3.3
	c-4.1-0.5-8.2-0.6-12.2-1.5c-8-1.8-12.5-6.8-14.9-14.2c-1.1-3.4-2.6-6.8-1.5-10.5c0.8-1.5-0.2-1.8-1.3-2.4
	c-6.5-3.6-7.7-12.9-2.5-18.4c1.4-1.4,3-1.9,4.8-1.5c1.9,0.5,1.6,2.3,1.7,3.7c0.1,1.1-0.2,2.6,1.4,2.5c1.4-0.1,0.8-1.4,1-2.3
	c1.2-5.7,5.2-9.7,9.6-13c7.1-5.5,15.4-7.7,24.3-6.8c6.3,0.6,9.8,5.7,13.2,10.2c1.9,2.6,3.3,5.6,4.7,8.5c1.1,2.2,2,3.1,4,0.9
	c0.7-0.8,1.8-1.4,2.8-1.8c4.4-1.7,6.6-0.2,7,4.5c0.5,5.2-1.4,9.6-4.7,13.4c-0.9,1.1-1.6,2.1-1.6,3.6C82.3,56.6,81.9,61.8,81.7,66.9z
	"/>
<path class="st3" d="M17.9,50.4c1.3,5.1,2,10.3,4.7,15.1c2.3,4,5.2,6.6,9.5,7.7c9.5,2.5,19.2,3.3,29.1,2.2c7.2-0.8,13.8-2.8,19.7-7
	c-1.2,8.5-5.7,14.7-13.2,18.6c-3.9,2-5.8,0.9-7.6-3.5c1.5-0.3,4.4,1.1,4.4-1c0-2.1-2.8-1.1-4.4-1.1c-5.2-0.1-10.5-0.1-15.7-0.2
	c-2.1-0.1-3.5,0.4-4.7,2.3c-0.8,1.2-2,2.2-3.3,3c-2.9,1.9-5.1,1.3-6.1-2c-0.7-2.2-1.9-3-4.1-3.6c-5.7-1.4-9.8-6.6-10.4-12.4
	c-0.6-4.9-1.1-9.7,0.2-14.5C16.2,52.8,16.4,51.2,17.9,50.4z"/>
<path class="st4" d="M74.7,39.6"/>
<path class="st4" d="M31.9,38.1c0,0-2.8,1.7-2.8,2.1s-4.2,21.2,15.6,31.6s27.7-31.3,27.7-31.3s-1.1-1.9-2.2-2.4
	C69.1,37.6,31.9,38.1,31.9,38.1z"/>
<path class="st5" d="M49.9,56.4c5-0.5,8.7,1.6,12.5,3.5c1.2,0.6,1.4,1.2,0.5,2.3c-3.5,4-7.5,7.3-13.1,7.9c-5.7,0.6-9.8-2.2-13.1-6.4
	c-1.2-1.6-0.8-2.6,1-3.5C41.7,58,45.7,56.1,49.9,56.4z"/>
<path class="st6" d="M39.9,38.5c2.9-0.8,3.3,1.5,3.1,3.2c-0.2,1.5,0,4-1.9,3.9c-2.6-0.1-3.4-2.8-3.7-4.9
	C36.9,37.3,39.4,38.9,39.9,38.5z"/>
<path class="st7" d="M49.9,38.6c1.1,0.3,3-0.9,2.6,2c-0.2,1.4-0.3,4.1-2.2,3.9c-1.8-0.2-1.9-3-2.2-4.6C47.7,38.3,49,38.6,49.9,38.6z
	"/>
<path class="st8" d="M44.9,64.1c-1.8-0.4-4-0.4-3.6-2.6c0.6-2.8,3.2-3.5,5.8-3.6c1.7-0.1,3.9,0.3,3.6,2.2
	C50.3,63.3,47,63.2,44.9,64.1z"/>
<ellipse cx="37.2" cy="27.4" rx="2.2" ry="3"/>
<ellipse transform="matrix(0.9929 -0.1189 0.1189 0.9929 -2.7115 7.8793)" cx="64.7" cy="26.7" rx="2.3" ry="3.2"/>
<path class="st9" d="M31.7,32.2c0,0,4.4-4.6,9.8-0.7"/>
<path class="st9" d="M59.8,29.7c0,0,7.2-1.2,9.1,2.2"/>
<polygon class="st10" points="68.1,38 31.9,38.3 30.6,39.1 69.6,38.9 "/>
<path class="st9" d="M27.1,41c0,0,4.2-0.4,5.1-4.9"/>
<path class="st9" d="M68.8,36.6c0,0,2.6,3.2,4.8,4.1"/>
<g>
	<path d="M44.9,50c0,0.2,0,0.3,0,0.4h-0.2l0-0.2h0c-0.1,0.1-0.2,0.3-0.5,0.3c-0.2,0-0.5-0.1-0.5-0.6v-0.9h0.3v0.8
		c0,0.3,0.1,0.5,0.3,0.5c0.2,0,0.3-0.1,0.3-0.2c0,0,0-0.1,0-0.1v-0.9h0.3V50z"/>
	<path d="M45.1,50.5l0.8-2.2h0.2l-0.8,2.2H45.1z"/>
	<path d="M46.3,50.1c0.1,0.1,0.3,0.1,0.5,0.1c0.3,0,0.4-0.1,0.4-0.3c0-0.2-0.1-0.3-0.4-0.4c-0.3-0.1-0.5-0.3-0.5-0.6
		c0-0.3,0.3-0.6,0.7-0.6c0.2,0,0.4,0,0.4,0.1l-0.1,0.2c-0.1,0-0.2-0.1-0.4-0.1c-0.3,0-0.4,0.2-0.4,0.3c0,0.2,0.1,0.3,0.4,0.4
		c0.3,0.1,0.5,0.3,0.5,0.6c0,0.3-0.2,0.6-0.7,0.6c-0.2,0-0.4-0.1-0.5-0.1L46.3,50.1z"/>
	<path d="M48.1,48.5c0,0.1-0.1,0.2-0.2,0.2c-0.1,0-0.2-0.1-0.2-0.2c0-0.1,0.1-0.2,0.2-0.2C48,48.4,48.1,48.4,48.1,48.5z M47.8,50.4
		v-1.5h0.3v1.5H47.8z"/>
	<path d="M48.5,49.4c0-0.2,0-0.3,0-0.5h0.2l0,0.3h0c0.1-0.2,0.2-0.3,0.4-0.3c0,0,0.1,0,0.1,0v0.2c0,0-0.1,0-0.1,0
		c-0.2,0-0.3,0.1-0.4,0.3c0,0,0,0.1,0,0.1v0.8h-0.3V49.4z"/>
	<path d="M49.6,49.7c0,0.4,0.2,0.5,0.5,0.5c0.2,0,0.3,0,0.4-0.1l0,0.2c-0.1,0-0.3,0.1-0.5,0.1c-0.4,0-0.7-0.3-0.7-0.7
		c0-0.4,0.3-0.8,0.7-0.8c0.5,0,0.6,0.4,0.6,0.7c0,0.1,0,0.1,0,0.1H49.6z M50.4,49.5c0-0.2-0.1-0.4-0.4-0.4c-0.3,0-0.4,0.2-0.4,0.4
		H50.4z"/>
	<path d="M50.9,49.3c0-0.2,0-0.3,0-0.4h0.2l0,0.2h0c0.1-0.1,0.2-0.3,0.5-0.3c0.2,0,0.5,0.1,0.5,0.6v0.9h-0.3v-0.8
		c0-0.2-0.1-0.4-0.3-0.4c-0.2,0-0.3,0.1-0.4,0.3c0,0,0,0.1,0,0.1v0.9h-0.3V49.3z"/>
	<path d="M53.8,48.4v0.2l-0.9,1.8h-0.3l0.8-1.7v0h-1v-0.2H53.8z"/>
	<path d="M54.1,50.4v-0.2l0.2-0.2c0.5-0.5,0.7-0.7,0.7-1c0-0.2-0.1-0.4-0.4-0.4c-0.2,0-0.3,0.1-0.4,0.2l-0.1-0.2
		c0.1-0.1,0.3-0.2,0.6-0.2c0.4,0,0.6,0.3,0.6,0.6c0,0.4-0.3,0.7-0.7,1l-0.2,0.1v0h0.9v0.2H54.1z"/>
</g>
</svg>
